# xmcd CD database file
#
# Track frame offsets:
#	150
#	15724
#	22968
#	35505
#	45059
#	55522
#	74350
#	84515
#	96478
#	107944
#	116271
#	128756
#	140719
#	154152
#	167873
#
# Disc length: 2415 seconds
#
# Revision: 1
# Processed by: cddbd v1.5.2PL0 Copyright (c) Steve Scherf et al.
# Submitted via: CDex 1.70beta2
#
DISCID=bf096d0f
DTITLE=Will Cox - Family Christmas Favorites
DYEAR=2009
DGENRE=Country
TTITLE0=The First Noel
TTITLE1=It's Beginning to look a lot like Christmas
TTITLE2=White Christmas
TTITLE3=Away in a Manger
TTITLE4=Beneath The Cross
TTITLE5=I Know Who Holds Tomorrow
TTITLE6=What Child Is This
TTITLE7=Hark the Herald Angels Sing
TTITLE8=O Little Town of Bethlehem
TTITLE9=Joy To The World
TTITLE10=The Old Rugged Cross
TTITLE11=Silent Night
TTITLE12=Peace in the Valley
TTITLE13=Some Golden Daybreak
TTITLE14=The Last Mile of the Way
EXTD=YEAR: 2009
EXTT0=
EXTT1=
EXTT2=
EXTT3=
EXTT4=
EXTT5=
EXTT6=
EXTT7=
EXTT8=
EXTT9=
EXTT10=
EXTT11=
EXTT12=
EXTT13=
EXTT14=
PLAYORDER=
